<svg width="55" height="74" viewBox="0 0 55 74" fill="none" xmlns="http://www.w3.org/2000/svg">
<path d="M50.9847 9.84898C50.9776 14.5655 47.1481 18.383 42.4316 18.3759L32.0112 18.3602C24.3658 19.0109 18.624 25.6739 19.1435 33.3602C19.6687 41.1299 26.3933 47.0032 34.1631 46.4781C38.8687 46.1602 42.9414 49.7171 43.2594 54.4227C43.5773 59.1282 40.0203 63.2008 35.3148 63.519C18.1336 64.6803 3.26388 51.6932 2.10257 34.512C0.941342 17.3306 13.9283 2.46092 31.1096 1.29969L31.403 1.27986L42.4579 1.2968C47.1741 1.30404 50.9917 5.13268 50.9847 9.84898Z" fill="url(#paint0_linear_6_19)"/>
<rect x="52.3652" y="30.7309" width="43.2691" height="17.0799" rx="8.53995" transform="rotate(90 52.3652 30.7309)" fill="url(#paint1_linear_6_19)"/>
<defs>
<linearGradient id="paint0_linear_6_19" x1="20.7658" y1="36.0816" x2="25.2241" y2="84.3675" gradientUnits="userSpaceOnUse">
<stop stop-color="#C8FF00"/>
<stop offset="0.716147" stop-color="#03BA3A"/>
<stop offset="1" stop-color="#FCFCFC"/>
</linearGradient>
<linearGradient id="paint1_linear_6_19" x1="34.716" y1="38.7015" x2="139.04" y2="35.9361" gradientUnits="userSpaceOnUse">
<stop offset="0.111432" stop-color="#66C40E"/>
<stop offset="0.435999" stop-color="#C8FF00"/>
<stop offset="0.682797" stop-color="#03BA3A"/>
<stop offset="0.839045" stop-color="#FCFCFC"/>
</linearGradient>
</defs>
</svg>
